<svg width="27" height="21" viewBox="0 0 27 21" fill="none" xmlns="http://www.w3.org/2000/svg">
<g id="Union">
<path d="M18.4023 2.66428L18.4214 2.62732C18.8123 1.86971 19.3963 0.737936 20.609 0.217237C21.3981 -0.119229 22.1769 -0.0454901 22.9383 0.305266C23.3888 0.512192 23.8044 0.817301 24.1187 1.13292C24.1118 1.13989 24.1048 1.14697 24.1013 1.15747C24.0804 1.15045 24.0559 1.13991 24.0384 1.1294C23.0955 0.533179 21.4646 0.641623 20.6338 2.45074C19.5306 4.86289 16.4195 7.36237 12.7806 6.96912C12.7673 6.96746 12.5832 6.94607 12.5832 6.94607C12.647 6.89422 12.6878 6.8709 12.7735 6.8429C13.8736 6.67828 14.8757 6.26818 15.7941 5.64773C17.0721 4.79239 17.8018 3.83529 18.4023 2.66428Z" fill="#EBEBEB"/>
<path fill-rule="evenodd" clip-rule="evenodd" d="M17.3637 16.2404C17.2939 16.3666 16.6759 17.0783 16.5467 17.215C15.4713 18.3678 11.1082 20.1557 8.49076 18.9095L8.53588 18.8913L8.522 18.8942L8.75549 15.6451C7.58734 15.5127 6.91476 15.7536 5.69997 16.4733L4.75536 19.164L4.75924 19.1659L4.76131 19.167C4.75128 19.212 4.72982 19.2729 4.70092 19.3548C4.66696 19.451 4.62272 19.5764 4.57472 19.7394C4.3215 20.0528 3.77749 20.4059 3.24518 20.5833C2.86215 20.7102 2.47861 20.6589 2.05646 20.6024C1.82856 20.5719 1.58939 20.54 1.33299 20.5337C0.763007 20.5198 0.344857 20.783 0.0516646 20.9675L0 21L4.48974e-05 20.9987C0.000853311 20.9513 0.00136268 20.9274 0.00732806 20.9112C0.128353 20.6145 0.279811 20.3493 0.466022 20.1207L1.27941 18.42C1.34497 18.2164 1.40567 18.0005 1.45847 17.7731C1.74156 16.5568 1.64555 15.3753 1.1116 14.2366C0.594478 13.1367 0.981491 12.2079 1.14383 12.0951C1.37882 13.0013 1.41253 13.079 1.5952 13.263C1.82535 13.5042 2.18419 13.4606 2.42565 12.872C2.63936 12.3501 2.63898 11.7582 2.63857 11.1249C2.63793 10.1453 2.63723 9.06654 3.42862 7.99391C3.52109 7.86996 3.79254 7.57275 3.93044 7.46624C3.93552 7.46842 3.93941 7.47193 3.94332 7.47547C3.9472 7.47898 3.95109 7.4825 3.95614 7.48472C3.94527 7.52732 3.92802 7.58077 3.90683 7.6464C3.80799 7.95282 3.62348 8.52487 3.60078 9.49911L3.60025 9.51912C3.61615 9.48437 3.63257 9.45 3.64953 9.41605C3.86513 8.98517 4.09259 8.63228 4.3052 8.30246C4.57283 7.88729 4.81689 7.50865 4.98413 7.05693C5.22557 6.41529 5.25564 5.99321 5.27175 5.76709C5.27519 5.71866 5.278 5.67912 5.28212 5.64845C5.28599 5.64834 5.28946 5.64708 5.29292 5.64581C5.2964 5.64454 5.29986 5.64328 5.30375 5.64321C5.3657 5.74927 5.46463 6.01515 5.49236 6.12054C5.72656 7.0302 5.44235 7.73385 5.18428 8.37279C5.01743 8.78588 4.86151 9.17194 4.86367 9.56912C4.86554 9.87577 4.97043 10.0304 5.10492 10.0666C5.33285 9.77681 5.59419 9.39343 5.81694 8.91603C6.18883 8.1201 6.29464 7.29254 6.09269 6.43014C5.89667 5.597 6.29829 5.01427 6.42647 4.96044C6.45642 5.61883 6.46833 5.67726 6.56732 5.83078C6.69069 6.03058 6.94411 6.05317 7.196 5.68335C7.41909 5.35534 7.50495 4.94777 7.59682 4.51165C7.73891 3.83709 7.8954 3.09421 8.59637 2.47176C8.67807 2.39998 8.90821 2.23516 9.01866 2.18205C9.02184 2.1843 9.02401 2.18729 9.02618 2.1903C9.02835 2.19329 9.03051 2.19628 9.03367 2.19855C9.01998 2.22629 9.00033 2.26056 8.97619 2.30264C8.87025 2.48744 8.67794 2.8229 8.5245 3.41745C8.92012 2.90648 9.44359 2.53004 10.1222 2.32029C10.7261 2.13167 11.2663 2.22434 11.921 2.33665C12.1105 2.36917 12.3096 2.4033 12.5226 2.43275C13.2917 2.54223 13.7626 2.28204 13.9698 2.16753L13.9702 2.16732C14.0101 2.14525 14.0403 2.1286 14.0608 2.12111C14.0622 2.11246 14.0708 2.11386 14.0954 2.1267C14.0417 2.36803 13.5591 3.22069 12.6569 3.72177C12.5635 3.81389 11.7839 4.26089 10.8555 4.08068C11.256 4.81685 12.2122 4.79661 13.2253 4.64963C13.4032 4.62107 13.5822 4.59651 13.7639 4.57159L13.7653 4.5714C14.089 4.52698 14.4212 4.48139 14.7707 4.40985C15.4132 4.27671 15.9125 3.91564 16.3246 3.41781C16.4019 3.32418 16.4737 3.22714 16.5455 3.12994C16.6001 3.05606 16.6548 2.9821 16.7121 2.90945C16.7226 2.89192 16.7435 2.87791 16.775 2.8674C16.7726 2.8792 16.7707 2.89139 16.7687 2.90358C16.7673 2.91262 16.7658 2.92173 16.7642 2.9306C16.7615 2.9453 16.7584 2.95954 16.7541 2.97258C16.6109 3.39683 16.391 3.77897 16.1082 4.11903C15.2876 5.12521 14.2226 5.75266 13.0074 6.1522C12.8519 6.20245 12.6956 6.24838 12.5386 6.29005L12.5378 6.29194C12.5324 6.29277 12.5271 6.29363 12.5217 6.29452C12.4528 6.31268 12.3837 6.33001 12.3145 6.34654C11.747 6.53954 11.4691 7.07304 11.3821 7.27406C11.9793 7.08339 12.5079 6.95265 12.565 7.35344C13.8227 7.66681 16.3734 7.58929 18.1095 6.29673C18.2655 6.18042 18.4129 6.05269 18.5609 5.92445L18.5631 5.92255L18.5632 5.92243L18.5633 5.92234C18.6464 5.85032 18.7297 5.77814 18.8148 5.70778C18.8307 5.69581 18.8455 5.68271 18.863 5.66717C18.8762 5.65543 18.8911 5.64222 18.9091 5.62715C18.9127 5.77792 18.5671 6.79821 18.1411 7.41523C17.6174 8.17951 16.9036 8.52364 15.9901 8.85247C15.89 8.89792 15.8144 8.93143 15.7525 8.95886C15.5432 9.05163 15.4908 9.07485 15.1774 9.25535C14.5978 9.58485 13.9274 10.3912 14.6085 11.2013C15.1184 11.8044 16.0772 12.2197 17.5202 12.0014C19.7865 11.4442 22.0003 9.38987 22.7404 7.79813C22.7469 7.78486 22.7567 7.76848 22.7666 7.75191L22.7672 7.75093L22.7683 7.74905C22.7708 7.74159 22.7767 7.73765 22.7887 7.72976C22.7936 7.72651 22.7996 7.72259 22.8067 7.71748C22.9746 9.54078 22.0635 11.9635 20.6144 13.1028C19.4088 14.048 17.6779 13.8632 16.0547 13.6898C15.7761 13.6601 15.5765 13.6306 15.4183 13.6073C14.9876 13.5439 14.8646 13.5257 14.2908 13.6697C13.2223 13.936 12.3319 15.1455 13.1213 16.1414C13.4322 16.5306 13.8583 16.7341 14.3088 16.8849C15.4011 17.1227 16.6514 16.6988 17.151 16.3614L17.1512 16.3613C17.2612 16.2871 17.3322 16.2391 17.3637 16.2404ZM7.19247 12.91C7.86638 12.4472 8.55929 12.176 9.13567 12.3204C9.05167 10.0225 9.28001 8.39766 9.77641 6.01528C9.35374 6.36544 8.61331 7.26263 8.55929 7.49573C8.55929 7.49573 8.81163 7.21151 9.13567 7.21151C8.18982 8.99653 7.58007 10.6878 7.19247 12.91Z" fill="#EBEBEB"/>
<path d="M14.6438 19.8059C16.9557 19.9184 19.648 19.172 21.1005 17.6295C21.5689 17.1313 21.9278 16.655 22.2632 16.2099C22.6854 15.6496 23.0705 15.1386 23.59 14.6951C24.3261 14.0599 24.8729 13.8147 25.1658 13.6834L25.1659 13.6833C25.2286 13.6552 25.2797 13.6323 25.3185 13.6119C25.3168 13.6067 25.3168 13.6014 25.3168 13.5961C25.3168 13.5909 25.3168 13.5856 25.315 13.5804C25.1438 13.5488 24.7422 13.5452 24.5886 13.5592C23.2652 13.6868 22.4674 14.4094 21.7429 15.0655C21.2746 15.4897 20.8369 15.8861 20.3076 16.076C19.7105 16.2899 19.438 16.0514 19.4624 15.7183C19.4763 15.4588 19.5113 15.3817 20.0245 14.5999C19.8324 14.5543 18.8861 14.8872 18.4183 16.0091C17.933 17.1697 17.123 18.0321 16.0335 18.635C14.9078 19.2588 13.8826 19.4654 13.3798 19.5667C13.2977 19.5833 13.2295 19.597 13.1771 19.6093V19.6373C13.3517 19.6865 14.3086 19.7918 14.6438 19.8059Z" fill="#EBEBEB"/>
<path d="M25.6919 5.05624C25.6462 4.28561 25.6099 3.67463 26.0922 3.18438C26.354 2.92146 26.6299 2.68658 26.9686 2.53586C26.9749 2.53374 26.9787 2.52908 26.9845 2.52186C26.9883 2.51712 26.9931 2.51127 27 2.50431C26.9917 2.50311 26.9846 2.50151 26.9781 2.50005C26.9656 2.49723 26.9557 2.49498 26.9442 2.49729C26.8955 2.50722 26.8461 2.51583 26.7953 2.52467C26.4344 2.5876 26.0022 2.66299 25.2401 3.31748C23.7142 4.6251 23.7179 6.16436 23.7426 7.55634L23.7456 7.70717V7.70734C23.7554 8.19285 23.7652 8.67581 23.7463 9.15872C23.7188 9.96386 23.4767 10.4172 23.3544 10.6459C23.3224 10.706 23.2985 10.7507 23.2891 10.782L23.303 10.7961C23.5335 10.5927 24.2179 9.84251 24.7241 9.07472C25.8306 7.391 25.7529 6.08213 25.6919 5.05624Z" fill="#EBEBEB"/>
<path d="M24.8279 2.78447C24.8305 2.78886 24.8332 2.79324 24.8349 2.79851L24.7076 2.89244C23.6145 3.69856 22.8719 4.2462 22.5828 5.3402C22.5528 5.45428 22.5245 5.56737 22.4963 5.6802C22.2913 6.50026 22.0897 7.30618 21.2702 8.36942C20.4428 9.43871 19.7793 10.0347 18.6829 10.4062C18.6654 10.4097 18.6479 10.4132 18.627 10.4202C18.6235 10.4167 18.6217 10.4132 18.62 10.4096C18.6189 10.4075 18.6178 10.4052 18.6163 10.4031C18.6154 10.4018 18.6143 10.4004 18.613 10.3991C19.6151 9.65949 20.0621 9.3019 20.3483 8.25006C20.403 8.04424 20.4526 7.84203 20.5015 7.64215L20.5028 7.6368C20.7469 6.6402 20.9769 5.70143 21.7551 4.66337C22.6454 3.48189 23.6336 2.9526 24.821 2.77044C24.8227 2.77571 24.8253 2.78009 24.8279 2.78447Z" fill="#EBEBEB"/>
</g>
</svg>
