<svg width="1920" height="1281" viewBox="0 0 1920 1281" fill="none" xmlns="http://www.w3.org/2000/svg">
<g opacity="0.4" clip-path="url(#clip0_44_1230)">
<rect width="1920" height="1281" fill="black"/>
<rect width="365.714" height="365.714" transform="matrix(0 -1 -1 0 365.714 365.714)" fill="#0F0F0F"/>
<path d="M6.10352e-05 365.714V6.10352e-05L365.714 365.714H6.10352e-05Z" fill="black"/>
<rect width="365.714" height="365.714" transform="matrix(0 1 1 0 365.715 0.000244141)" fill="#0F0F0F"/>
<path d="M365.714 6.10352e-05C365.714 48.0264 375.174 95.5824 393.553 139.953C411.932 184.323 438.87 224.639 472.83 258.599C506.789 292.559 547.105 319.497 591.476 337.876C635.846 356.255 683.402 365.714 731.429 365.714L731.429 6.10352e-05H365.714Z" fill="#1C1C1C"/>
<rect x="1097.14" y="0.000244141" width="365.714" height="365.714" transform="rotate(90 1097.14 0.000244141)" fill="#0F0F0F"/>
<path d="M1097.14 6.10352e-05C1097.14 48.0264 1087.68 95.5824 1069.3 139.953C1050.93 184.323 1023.99 224.639 990.028 258.599C956.068 292.559 915.752 319.497 871.382 337.876C827.011 356.255 779.455 365.714 731.429 365.714L731.429 6.10352e-05H1097.14Z" fill="#1F1F1F"/>
<rect x="1097.14" y="0.0012207" width="365.714" height="365.714" fill="#0F0F0F"/>
<path d="M1280 -9.15527e-05C1280 100.989 1361.87 182.857 1462.86 182.857V-9.15527e-05H1280Z" fill="#1C1C1C"/>
<path d="M1280 365.714C1280 264.725 1361.87 182.857 1462.86 182.857V365.714H1280Z" fill="black"/>
<path d="M1280 -9.15527e-05C1280 100.989 1198.13 182.857 1097.14 182.857V-9.15527e-05H1280Z" fill="#1C1C1C"/>
<path d="M1280 365.714C1280 264.725 1198.13 182.857 1097.14 182.857V365.714H1280Z" fill="#1F1F1F"/>
<rect width="365.714" height="365.714" transform="matrix(1 0 0 -1 1462.86 365.714)" fill="#0F0F0F"/>
<path d="M1462.86 182.857C1462.86 81.8682 1544.73 0.000244141 1645.71 0.000244141V365.715C1544.73 365.715 1462.86 283.847 1462.86 182.857Z" fill="#1F1F1F"/>
<path d="M1828.57 182.857C1828.57 81.8682 1746.7 0.000244141 1645.71 0.000244141V365.715C1746.7 365.715 1828.57 283.847 1828.57 182.857Z" fill="#1F1F1F"/>
<rect x="1828.57" y="0.0012207" width="365.714" height="365.714" fill="#1C1C1C"/>
<rect x="1828.57" y="0.0012207" width="182.857" height="365.714" fill="#1C1C1C"/>
<rect width="365.714" height="365.714" transform="matrix(-1 0 0 1 365.714 365.715)" fill="#0F0F0F"/>
<path d="M365.714 548.572C365.714 649.562 283.846 731.429 182.857 731.429L182.857 365.715C283.846 365.715 365.714 447.583 365.714 548.572Z" fill="#1F1F1F"/>
<path d="M0.000244141 548.571C0.000244141 649.561 81.8682 731.428 182.857 731.428L182.857 365.714C81.8682 365.714 0.000244141 447.582 0.000244141 548.571Z" fill="#1C1C1C"/>
<rect width="365.714" height="365.714" transform="matrix(0 -1 -1 0 731.429 731.428)" fill="#0F0F0F"/>
<path d="M365.715 731.428V685.714L411.429 731.428H365.715Z" fill="black"/>
<path d="M411.429 731.428V685.714L457.143 731.428H411.429Z" fill="black"/>
<path d="M457.143 731.428V685.714L502.857 731.428H457.143Z" fill="black"/>
<path d="M502.857 731.428V685.714L548.572 731.428H502.857Z" fill="black"/>
<path d="M548.572 731.428V685.714L594.286 731.428H548.572Z" fill="black"/>
<path d="M594.286 731.428V685.714L640 731.428H594.286Z" fill="black"/>
<path d="M640 731.428V685.714L685.714 731.428H640Z" fill="black"/>
<path d="M685.714 731.428V685.714L731.429 731.428H685.714Z" fill="black"/>
<path d="M365.715 685.715V640.001L411.429 685.715H365.715Z" fill="black"/>
<path d="M411.429 685.715V640.001L457.143 685.715H411.429Z" fill="black"/>
<path d="M457.143 685.715V640.001L502.857 685.715H457.143Z" fill="black"/>
<path d="M502.857 685.715V640.001L548.572 685.715H502.857Z" fill="black"/>
<path d="M548.572 685.715V640.001L594.286 685.715H548.572Z" fill="black"/>
<path d="M594.286 685.715V640.001L640 685.715H594.286Z" fill="black"/>
<path d="M640 685.715V640.001L685.714 685.715H640Z" fill="black"/>
<path d="M365.715 640.001V594.287L411.429 640.001H365.715Z" fill="black"/>
<path d="M411.429 640.001V594.287L457.143 640.001H411.429Z" fill="black"/>
<path d="M457.143 640.001V594.287L502.857 640.001H457.143Z" fill="black"/>
<path d="M502.857 640.001V594.287L548.572 640.001H502.857Z" fill="black"/>
<path d="M548.572 640.001V594.287L594.286 640.001H548.572Z" fill="black"/>
<path d="M594.286 640.001V594.287L640 640.001H594.286Z" fill="black"/>
<path d="M365.715 594.287V548.573L411.429 594.287H365.715Z" fill="black"/>
<path d="M411.429 594.287V548.573L457.143 594.287H411.429Z" fill="black"/>
<path d="M457.143 594.287V548.573L502.857 594.287H457.143Z" fill="black"/>
<path d="M502.857 594.287V548.573L548.572 594.287H502.857Z" fill="black"/>
<path d="M548.572 594.287V548.573L594.286 594.287H548.572Z" fill="black"/>
<path d="M365.715 548.573V502.858L411.429 548.573H365.715Z" fill="black"/>
<path d="M411.429 548.573V502.858L457.143 548.573H411.429Z" fill="black"/>
<path d="M457.143 548.573V502.858L502.857 548.573H457.143Z" fill="black"/>
<path d="M502.857 548.573V502.858L548.572 548.573H502.857Z" fill="black"/>
<path d="M365.715 502.857V457.143L411.429 502.857H365.715Z" fill="black"/>
<path d="M411.429 502.857V457.143L457.143 502.857H411.429Z" fill="black"/>
<path d="M457.143 502.857V457.143L502.857 502.857H457.143Z" fill="black"/>
<path d="M365.715 457.144V411.43L411.429 457.144H365.715Z" fill="black"/>
<path d="M411.429 457.144V411.43L457.143 457.144H411.429Z" fill="black"/>
<path d="M365.715 411.429V365.714L411.429 411.429H365.715Z" fill="black"/>
<rect x="731.428" y="731.428" width="365.714" height="365.714" transform="rotate(-90 731.428 731.428)" fill="#0F0F0F"/>
<rect x="1097.14" y="731.428" width="365.714" height="365.714" transform="rotate(-90 1097.14 731.428)" fill="#0F0F0F"/>
<path d="M1462.86 731.428V685.714L1417.14 731.428H1462.86Z" fill="black"/>
<path d="M1417.14 731.428V685.714L1371.43 731.428H1417.14Z" fill="black"/>
<path d="M1371.43 731.428V685.714L1325.71 731.428H1371.43Z" fill="black"/>
<path d="M1325.71 731.428V685.714L1280 731.428H1325.71Z" fill="black"/>
<path d="M1280 731.428V685.714L1234.29 731.428H1280Z" fill="black"/>
<path d="M1234.29 731.428V685.714L1188.57 731.428H1234.29Z" fill="black"/>
<path d="M1188.57 731.428V685.714L1142.86 731.428H1188.57Z" fill="black"/>
<path d="M1142.86 731.428V685.714L1097.14 731.428H1142.86Z" fill="black"/>
<path d="M1462.86 685.715V640.001L1417.14 685.715H1462.86Z" fill="black"/>
<path d="M1417.14 685.715V640.001L1371.43 685.715H1417.14Z" fill="black"/>
<path d="M1371.43 685.715V640.001L1325.71 685.715H1371.43Z" fill="black"/>
<path d="M1325.71 685.715V640.001L1280 685.715H1325.71Z" fill="black"/>
<path d="M1280 685.715V640.001L1234.29 685.715H1280Z" fill="black"/>
<path d="M1234.29 685.715V640.001L1188.57 685.715H1234.29Z" fill="black"/>
<path d="M1188.57 685.715V640.001L1142.86 685.715H1188.57Z" fill="black"/>
<path d="M1462.86 640.001V594.287L1417.14 640.001H1462.86Z" fill="black"/>
<path d="M1417.14 640.001V594.287L1371.43 640.001H1417.14Z" fill="black"/>
<path d="M1371.43 640.001V594.287L1325.71 640.001H1371.43Z" fill="black"/>
<path d="M1325.71 640.001V594.287L1280 640.001H1325.71Z" fill="black"/>
<path d="M1280 640.001V594.287L1234.29 640.001H1280Z" fill="black"/>
<path d="M1234.29 640.001V594.287L1188.57 640.001H1234.29Z" fill="black"/>
<path d="M1462.86 594.287V548.573L1417.14 594.287H1462.86Z" fill="black"/>
<path d="M1417.14 594.287V548.573L1371.43 594.287H1417.14Z" fill="black"/>
<path d="M1371.43 594.287V548.573L1325.71 594.287H1371.43Z" fill="black"/>
<path d="M1325.71 594.287V548.573L1280 594.287H1325.71Z" fill="black"/>
<path d="M1280 594.287V548.573L1234.29 594.287H1280Z" fill="black"/>
<path d="M1462.86 548.573V502.858L1417.14 548.573H1462.86Z" fill="black"/>
<path d="M1417.14 548.573V502.858L1371.43 548.573H1417.14Z" fill="black"/>
<path d="M1371.43 548.573V502.858L1325.71 548.573H1371.43Z" fill="black"/>
<path d="M1325.71 548.573V502.858L1280 548.573H1325.71Z" fill="black"/>
<path d="M1462.86 502.857V457.143L1417.14 502.857H1462.86Z" fill="black"/>
<path d="M1417.14 502.857V457.143L1371.43 502.857H1417.14Z" fill="black"/>
<path d="M1371.43 502.857V457.143L1325.71 502.857H1371.43Z" fill="black"/>
<path d="M1462.86 457.144V411.43L1417.14 457.144H1462.86Z" fill="black"/>
<path d="M1417.14 457.144V411.43L1371.43 457.144H1417.14Z" fill="black"/>
<path d="M1462.86 411.429V365.714L1417.14 411.429H1462.86Z" fill="black"/>
<rect x="1462.86" y="731.428" width="365.714" height="365.714" transform="rotate(-90 1462.86 731.428)" fill="#1C1C1C"/>
<rect x="1828.57" y="731.428" width="365.714" height="365.714" transform="rotate(-90 1828.57 731.428)" fill="#0F0F0F"/>
<rect x="1828.57" y="731.428" width="182.857" height="365.714" transform="rotate(-90 1828.57 731.428)" fill="black"/>
<rect x="0.000244141" y="1097.14" width="365.714" height="365.714" transform="rotate(-90 0.000244141 1097.14)" fill="#0F0F0F"/>
<path d="M3.05176e-05 914.286C100.989 914.286 182.857 832.418 182.857 731.428H3.05176e-05V914.286Z" fill="#1C1C1C"/>
<path d="M365.714 914.286C264.725 914.286 182.857 832.418 182.857 731.428H365.714V914.286Z" fill="#1F1F1F"/>
<path d="M3.05176e-05 914.286C100.989 914.286 182.857 996.154 182.857 1097.14H3.05176e-05V914.286Z" fill="#1C1C1C"/>
<path d="M365.714 914.286C264.725 914.286 182.857 996.154 182.857 1097.14H365.714V914.286Z" fill="#1F1F1F"/>
<rect width="365.714" height="365.714" transform="matrix(0 -1 -1 0 731.429 1097.14)" fill="#0F0F0F"/>
<path d="M731.429 731.428C731.429 779.455 721.969 827.011 703.591 871.381C685.212 915.752 658.273 956.068 624.314 990.027C590.354 1023.99 550.038 1050.93 505.667 1069.3C461.297 1087.68 413.741 1097.14 365.715 1097.14L365.715 731.428H731.429Z" fill="black"/>
<path d="M548.572 731.428C548.572 755.442 543.842 779.22 534.653 801.405C525.463 823.59 511.994 843.748 495.014 860.728C478.034 877.708 457.876 891.177 435.691 900.366C413.506 909.556 389.728 914.286 365.715 914.286L365.715 731.428H548.572Z" fill="#1F1F1F"/>
<rect x="731.428" y="1097.14" width="365.714" height="365.714" transform="rotate(-90 731.428 1097.14)" fill="#0F0F0F"/>
<path d="M731.428 731.428C731.428 779.455 740.888 827.011 759.267 871.381C777.645 915.752 804.584 956.068 838.544 990.027C872.503 1023.99 912.819 1050.93 957.19 1069.3C1001.56 1087.68 1049.12 1097.14 1097.14 1097.14L1097.14 731.428H731.428Z" fill="#1C1C1C"/>
<rect width="365.714" height="365.714" transform="matrix(0 -1 -1 0 1462.86 1097.14)" fill="black"/>
<path d="M1097.14 1097.14V731.428L1462.86 1097.14H1097.14Z" fill="black"/>
<rect width="365.714" height="365.714" transform="matrix(0 1 1 0 1462.86 731.428)" fill="#0F0F0F"/>
<path d="M1645.71 914.286C1746.7 914.286 1828.57 996.154 1828.57 1097.14H1462.86C1462.86 996.154 1544.73 914.286 1645.71 914.286Z" fill="#1F1F1F"/>
<path d="M1645.71 914.286C1746.7 914.286 1828.57 832.418 1828.57 731.429L1462.86 731.429C1462.86 832.418 1544.73 914.286 1645.71 914.286Z" fill="#1C1C1C"/>
<rect x="1828.57" y="1097.14" width="365.714" height="365.714" transform="rotate(-90 1828.57 1097.14)" fill="#0F0F0F"/>
<path d="M2011.43 914.286C2112.42 914.286 2194.29 832.418 2194.29 731.428H1828.57C1828.57 832.418 1910.44 914.286 2011.43 914.286Z" fill="#1F1F1F"/>
<rect width="365.714" height="365.714" transform="matrix(-1 0 0 1 365.714 1097.14)" fill="#0F0F0F"/>
<path d="M365.714 1280C365.714 1380.99 283.846 1462.86 182.857 1462.86L182.857 1097.14C283.846 1097.14 365.714 1179.01 365.714 1280Z" fill="#1F1F1F"/>
<path d="M0.000244141 1280C0.000244141 1380.99 81.8682 1462.86 182.857 1462.86L182.857 1097.14C81.8682 1097.14 0.000244141 1179.01 0.000244141 1280Z" fill="#1C1C1C"/>
<rect width="365.714" height="365.714" transform="matrix(0 -1 -1 0 731.429 1462.86)" fill="#0F0F0F"/>
<path d="M365.715 1325.71V1280L411.429 1325.71H365.715Z" fill="black"/>
<path d="M411.429 1325.71V1280L457.143 1325.71H411.429Z" fill="black"/>
<path d="M457.143 1325.71V1280L502.857 1325.71H457.143Z" fill="black"/>
<path d="M502.857 1325.71V1280L548.572 1325.71H502.857Z" fill="black"/>
<path d="M548.572 1325.71V1280L594.286 1325.71H548.572Z" fill="black"/>
<path d="M594.286 1325.71V1280L640 1325.71H594.286Z" fill="black"/>
<path d="M640 1325.71V1280L685.714 1325.71H640Z" fill="black"/>
<path d="M685.714 1325.71V1280L731.429 1325.71H685.714Z" fill="black"/>
<path d="M365.715 1280V1234.29L411.429 1280H365.715Z" fill="black"/>
<path d="M411.429 1280V1234.29L457.143 1280H411.429Z" fill="black"/>
<path d="M457.143 1280V1234.29L502.857 1280H457.143Z" fill="black"/>
<path d="M502.857 1280V1234.29L548.572 1280H502.857Z" fill="black"/>
<path d="M548.572 1280V1234.29L594.286 1280H548.572Z" fill="black"/>
<path d="M594.286 1280V1234.29L640 1280H594.286Z" fill="black"/>
<path d="M640 1280V1234.29L685.714 1280H640Z" fill="black"/>
<path d="M685.714 1280V1234.29L731.429 1280H685.714Z" fill="black"/>
<path d="M365.715 1234.29V1188.57L411.429 1234.29H365.715Z" fill="black"/>
<path d="M411.429 1234.29V1188.57L457.143 1234.29H411.429Z" fill="black"/>
<path d="M457.143 1234.29V1188.57L502.857 1234.29H457.143Z" fill="black"/>
<path d="M502.857 1234.29V1188.57L548.572 1234.29H502.857Z" fill="black"/>
<path d="M548.572 1234.29V1188.57L594.286 1234.29H548.572Z" fill="black"/>
<path d="M594.286 1234.29V1188.57L640 1234.29H594.286Z" fill="black"/>
<path d="M640 1234.29V1188.57L685.714 1234.29H640Z" fill="black"/>
<path d="M685.714 1234.29V1188.57L731.429 1234.29H685.714Z" fill="black"/>
<path d="M365.715 1188.57V1142.86L411.429 1188.57H365.715Z" fill="black"/>
<path d="M411.429 1188.57V1142.86L457.143 1188.57H411.429Z" fill="black"/>
<path d="M457.143 1188.57V1142.86L502.857 1188.57H457.143Z" fill="black"/>
<path d="M502.857 1188.57V1142.86L548.572 1188.57H502.857Z" fill="black"/>
<path d="M548.572 1188.57V1142.86L594.286 1188.57H548.572Z" fill="black"/>
<path d="M594.286 1188.57V1142.86L640 1188.57H594.286Z" fill="black"/>
<path d="M640 1188.57V1142.86L685.714 1188.57H640Z" fill="black"/>
<path d="M685.714 1188.57V1142.86L731.429 1188.57H685.714Z" fill="black"/>
<path d="M365.715 1142.86V1097.14L411.429 1142.86H365.715Z" fill="black"/>
<path d="M411.429 1142.86V1097.14L457.143 1142.86H411.429Z" fill="black"/>
<path d="M457.143 1142.86V1097.14L502.857 1142.86H457.143Z" fill="black"/>
<path d="M502.857 1142.86V1097.14L548.572 1142.86H502.857Z" fill="black"/>
<path d="M548.572 1142.86V1097.14L594.286 1142.86H548.572Z" fill="black"/>
<path d="M594.286 1142.86V1097.14L640 1142.86H594.286Z" fill="black"/>
<path d="M640 1142.86V1097.14L685.714 1142.86H640Z" fill="black"/>
<path d="M685.714 1142.86V1097.14L731.429 1142.86H685.714Z" fill="black"/>
<rect x="731.429" y="1462.86" width="365.714" height="365.714" transform="rotate(-90 731.429 1462.86)" fill="#1C1C1C"/>
<path d="M1097.14 1462.86V1097.14L731.429 1462.86H1097.14Z" fill="black"/>
<rect x="1097.14" y="1462.86" width="365.714" height="365.714" transform="rotate(-90 1097.14 1462.86)" fill="black"/>
<path d="M1097.14 1462.86C1097.14 1414.83 1106.6 1367.28 1124.98 1322.9C1143.36 1278.53 1170.3 1238.22 1204.26 1204.26C1238.22 1170.3 1278.53 1143.36 1322.9 1124.98C1367.27 1106.6 1414.83 1097.14 1462.86 1097.14L1462.86 1462.86H1097.14Z" fill="#1F1F1F"/>
<rect x="1462.86" y="1462.86" width="365.714" height="365.714" transform="rotate(-90 1462.86 1462.86)" fill="#1C1C1C"/>
<rect x="1462.86" y="1462.86" width="182.857" height="365.714" transform="rotate(-90 1462.86 1462.86)" fill="black"/>
<rect x="1462.86" y="1462.86" width="182.857" height="365.714" transform="rotate(-90 1462.86 1462.86)" fill="black"/>
<rect width="365.714" height="365.714" transform="matrix(0 1 1 0 1828.57 1097.14)" fill="#0F0F0F"/>
</g>
<defs>
<clipPath id="clip0_44_1230">
<rect width="1920" height="1281" fill="white"/>
</clipPath>
</defs>
</svg>
